<?xml version="1.0" encoding="utf-8"?>
<!-- Generator: Adobe Illustrator 16.0.0, SVG Export Plug-In . SVG Version: 6.00 Build 0)  -->
<!DOCTYPE svg PUBLIC "-//W3C//DTD SVG 1.0//EN" "http://www.w3.org/TR/2001/REC-SVG-20010904/DTD/svg10.dtd">
<svg version="1.0" id="Capa_1" xmlns="http://www.w3.org/2000/svg" xmlns:xlink="http://www.w3.org/1999/xlink" x="0px" y="0px"
	 width="9em" viewBox="0 0 707.11 161.513" enable-background="new 0 0 707.11 161.513"
	 xml:space="preserve">
<path fill="orange" d="M90.516,128.05c-5.369,2.525-9.666,6.837-12.22,12.163h-20.17c-2.548-5.326-6.851-9.638-12.219-12.163
	c-5.331-2.507-11.34-3.082-17.036-1.692l-7.978-13.36c8.764-6.795,13.978-17.34,13.978-28.452s-5.209-21.662-13.974-28.457
	l7.969-13.346c2.006,0.491,4.05,0.749,6.089,0.749c3.755,0,7.496-0.823,10.947-2.451c5.369-2.525,9.667-6.837,12.22-12.163h20.17
	c2.553,5.327,6.851,9.638,12.219,12.163c3.456,1.623,7.197,2.451,10.948,2.451c2.039,0,4.083-0.257,6.088-0.749l7.969,13.343
	c-8.759,6.795-13.973,17.344-13.973,28.46c0,11.111,5.214,21.661,13.983,28.456l-7.974,13.352
	C101.857,124.968,95.848,125.539,90.516,128.05L90.516,128.05z M118.276,112.697c0-0.079,0.005-0.154-0.014-0.229
	c-0.019-0.075-0.047-0.141-0.075-0.211c-0.028-0.07-0.056-0.141-0.098-0.206s-0.103-0.121-0.164-0.178
	c-0.042-0.042-0.075-0.098-0.126-0.136c-8.675-6.313-13.861-16.479-13.861-27.193c0-10.713,5.177-20.88,13.852-27.193
	c0.033-0.023,0.047-0.056,0.075-0.08c0.089-0.08,0.173-0.159,0.234-0.252c0.014-0.023,0.023-0.052,0.038-0.08
	c0.061-0.112,0.107-0.229,0.126-0.351c0.005-0.023,0-0.042,0.005-0.065c0.014-0.131,0.014-0.257-0.014-0.388
	c-0.005-0.028-0.019-0.051-0.028-0.075c-0.028-0.098-0.047-0.196-0.103-0.285l-8.97-15.016c-0.014-0.023-0.037-0.038-0.056-0.061
	c-0.046-0.07-0.107-0.126-0.168-0.182c-0.056-0.051-0.108-0.103-0.168-0.14c-0.065-0.042-0.131-0.07-0.206-0.094
	c-0.075-0.028-0.141-0.056-0.22-0.07c-0.07-0.014-0.14-0.009-0.215-0.014c-0.084,0-0.168,0-0.252,0.019
	c-0.023,0.005-0.052,0-0.075,0.005c-5.406,1.529-11.181,1.052-16.27-1.342c-5.088-2.395-9.138-6.542-11.401-11.677
	c-0.019-0.047-0.061-0.075-0.084-0.122c-0.056-0.089-0.103-0.182-0.177-0.252c-0.056-0.051-0.122-0.084-0.183-0.126
	c-0.065-0.042-0.126-0.094-0.201-0.126c-0.089-0.038-0.187-0.042-0.285-0.056c-0.042-0.014-0.089-0.038-0.15-0.038H57.388
	c-0.075,0-0.136,0.028-0.21,0.042c-0.08,0.014-0.164,0.019-0.238,0.046c-0.084,0.033-0.15,0.089-0.22,0.141
	c-0.056,0.037-0.117,0.065-0.164,0.112c-0.075,0.075-0.131,0.168-0.182,0.262c-0.023,0.042-0.061,0.07-0.08,0.117
	c-2.263,5.135-6.313,9.283-11.401,11.677c-5.088,2.394-10.864,2.871-16.27,1.342c-0.028-0.01-0.052,0-0.08-0.005
	c-0.084-0.019-0.168-0.019-0.257-0.019c-0.07,0-0.136,0-0.206,0.009c-0.084,0.014-0.159,0.047-0.234,0.075
	c-0.065,0.028-0.126,0.052-0.187,0.089c-0.065,0.042-0.122,0.094-0.178,0.149c-0.056,0.057-0.112,0.108-0.159,0.173
	c-0.019,0.023-0.042,0.038-0.056,0.061l-8.965,15.016c-0.033,0.056-0.037,0.117-0.061,0.173c-0.028,0.075-0.065,0.145-0.08,0.224
	c-0.014,0.075-0.009,0.15-0.009,0.225c0,0.08-0.005,0.154,0.014,0.229c0.014,0.075,0.046,0.14,0.075,0.21
	c0.028,0.07,0.056,0.141,0.098,0.206s0.103,0.117,0.159,0.173c0.042,0.042,0.075,0.098,0.126,0.136
	C27.3,63.66,32.477,73.827,32.477,84.54c0,10.719-5.182,20.88-13.866,27.194c-0.08,0.056-0.126,0.136-0.187,0.205
	c-0.023,0.028-0.056,0.052-0.075,0.08c-0.075,0.103-0.122,0.215-0.159,0.337c-0.009,0.023-0.023,0.046-0.028,0.074
	c-0.028,0.126-0.033,0.248-0.023,0.374c0.005,0.028,0,0.057,0.005,0.084c0.019,0.122,0.065,0.229,0.122,0.342
	c0.014,0.028,0.014,0.061,0.028,0.084l0.038,0.065c0.005,0.01,0.005,0.019,0.009,0.023c0,0.005,0.005,0.005,0.005,0.005
	l8.913,14.923c0.019,0.032,0.047,0.056,0.07,0.084s0.042,0.057,0.065,0.084c0.089,0.104,0.192,0.196,0.309,0.263l0.005,0.004
	c0.117,0.065,0.248,0.104,0.378,0.127c0.038,0.004,0.07,0.009,0.108,0.014c0.033,0.005,0.061,0.014,0.093,0.014
	c0.108,0,0.215-0.014,0.323-0.047h0.005c5.401-1.528,11.176-1.052,16.27,1.343c5.088,2.395,9.138,6.542,11.401,11.677
	c0.056,0.126,0.136,0.238,0.229,0.332c0.023,0.028,0.056,0.047,0.084,0.075c0.08,0.07,0.164,0.126,0.257,0.173
	c0.037,0.019,0.075,0.037,0.112,0.052c0.131,0.046,0.271,0.084,0.412,0.084h21.652h0.004c0.141,0,0.281-0.033,0.412-0.084
	c0.042-0.015,0.075-0.033,0.117-0.052c0.089-0.047,0.173-0.103,0.253-0.173c0.028-0.023,0.061-0.047,0.084-0.075
	c0.089-0.098,0.173-0.206,0.229-0.332c2.264-5.135,6.313-9.282,11.401-11.677s10.863-2.871,16.27-1.343h0.004
	c0.108,0.028,0.215,0.047,0.323,0.047c0.033,0,0.061-0.009,0.094-0.014c0.037-0.005,0.07-0.01,0.107-0.014
	c0.131-0.023,0.262-0.062,0.379-0.127c0.117-0.065,0.22-0.159,0.313-0.262c0.023-0.023,0.042-0.052,0.065-0.079
	c0.023-0.033,0.051-0.057,0.07-0.089l8.97-15.017c0.033-0.056,0.037-0.116,0.061-0.173c0.028-0.075,0.065-0.145,0.08-0.225
	C118.28,112.848,118.275,112.772,118.276,112.697L118.276,112.697z"/>
<g>
	<path fill="white" d="M167.746,116.998h36.165v4.689h-41.663V45.422h5.498V116.998z"/>
	<path fill="white" d="M263.089,45.422v4.581h-40.154v30.83h33.417v4.474h-33.417v31.799h40.154v4.582h-45.705V45.422H263.089z"/>
	<path fill="white" d="M338.49,121.688h-4.258c-0.503,0-0.916-0.135-1.239-0.404c-0.324-0.27-0.575-0.62-0.755-1.051l-9-22.152
		h-37.459l-8.947,22.152c-0.144,0.395-0.396,0.736-0.754,1.023c-0.36,0.288-0.791,0.432-1.294,0.432h-4.204l31.207-76.265h5.498
		L338.49,121.688z M287.449,93.984h34.171l-15.576-38.537c-0.252-0.61-0.504-1.302-0.755-2.075c-0.251-0.772-0.503-1.59-0.754-2.452
		c-0.252,0.862-0.503,1.68-0.754,2.452c-0.252,0.773-0.504,1.482-0.755,2.129L287.449,93.984z"/>
	<path fill="white" d="M394.219,45.422v4.689h-26.788v71.576h-5.498V50.111h-26.949v-4.689H394.219z"/>
	<path fill="white" d="M466.277,121.688h-5.551V85.145h-47.754v36.543h-5.551V45.422h5.551v35.572h47.754V45.422h5.551V121.688z"
		/>
	<path fill="white" d="M534.619,45.422v4.581h-40.154v30.83h33.416v4.474h-33.416v31.799h40.154v4.582h-45.705V45.422H534.619z"/>
	<path fill="white" d="M559.733,87.193v34.494h-5.497V45.422h19.457c8.803,0,15.378,1.698,19.727,5.093
		c4.347,3.396,6.521,8.381,6.521,14.957c0,2.911-0.504,5.57-1.51,7.977c-1.006,2.408-2.452,4.519-4.338,6.333
		c-1.887,1.815-4.16,3.306-6.818,4.474c-2.66,1.168-5.66,1.932-9.001,2.29c0.862,0.539,1.634,1.259,2.317,2.155l26.248,32.986
		h-4.797c-0.575,0-1.069-0.108-1.482-0.324c-0.413-0.215-0.817-0.574-1.213-1.078l-24.415-30.937
		c-0.611-0.79-1.267-1.347-1.968-1.671c-0.7-0.323-1.787-0.484-3.26-0.484H559.733z M559.733,83.097h13.259
		c3.377,0,6.404-0.404,9.082-1.213c2.676-0.809,4.939-1.967,6.791-3.476c1.85-1.509,3.261-3.323,4.23-5.444
		c0.971-2.12,1.455-4.509,1.455-7.168c0-5.425-1.778-9.45-5.336-12.073c-3.557-2.623-8.73-3.935-15.521-3.935h-13.96V83.097z"/>
	<path fill="white" d="M622.254,42.081c0.79,1.366,1.365,2.722,1.725,4.069c0.359,1.348,0.539,2.704,0.539,4.069
		c0,2.803-0.683,5.498-2.048,8.084c-1.366,2.587-3.145,4.941-5.336,7.061l-1.509-0.97c-0.252-0.215-0.377-0.466-0.377-0.754
		c0-0.287,0.107-0.539,0.322-0.754c1.365-1.796,2.498-3.602,3.396-5.417c0.897-1.814,1.348-3.692,1.348-5.632
		c0-2.083-0.63-4.222-1.887-6.414c-0.181-0.287-0.27-0.574-0.27-0.862c0-0.503,0.27-0.862,0.809-1.078L622.254,42.081z"/>
	<path fill="white" d="M678.846,54.693c-0.324,0.611-0.791,0.916-1.401,0.916c-0.47,0-1.073-0.332-1.812-0.997
		c-0.74-0.665-1.74-1.401-3.002-2.21c-1.262-0.808-2.838-1.554-4.73-2.236c-1.893-0.682-4.227-1.024-7.002-1.024
		s-5.218,0.396-7.326,1.186c-2.109,0.791-3.876,1.869-5.3,3.234c-1.425,1.366-2.505,2.946-3.244,4.743
		c-0.739,1.797-1.108,3.684-1.108,5.659c0,2.587,0.549,4.726,1.646,6.414c1.098,1.689,2.546,3.126,4.346,4.312
		c1.799,1.186,3.841,2.183,6.126,2.991c2.285,0.809,4.633,1.609,7.043,2.398c2.41,0.791,4.759,1.663,7.043,2.614
		c2.285,0.952,4.327,2.147,6.126,3.584c1.799,1.438,3.247,3.207,4.346,5.31c1.097,2.102,1.646,4.715,1.646,7.842
		c0,3.198-0.548,6.207-1.644,9.027c-1.098,2.821-2.688,5.273-4.771,7.357c-2.085,2.084-4.636,3.729-7.653,4.932
		s-6.468,1.805-10.348,1.805c-5.031,0-9.361-0.889-12.99-2.668c-3.629-1.777-6.809-4.212-9.539-7.303l1.509-2.371
		c0.431-0.539,0.935-0.809,1.509-0.809c0.324,0,0.738,0.216,1.242,0.646c0.503,0.432,1.114,0.962,1.834,1.59
		c0.72,0.629,1.584,1.313,2.591,2.049s2.177,1.42,3.509,2.048c1.33,0.629,2.859,1.159,4.587,1.59s3.688,0.647,5.884,0.647
		c3.021,0,5.721-0.459,8.096-1.375s4.381-2.164,6.018-3.746c1.638-1.58,2.887-3.457,3.752-5.632
		c0.863-2.174,1.295-4.501,1.295-6.979c0-2.695-0.549-4.914-1.646-6.656c-1.099-1.742-2.547-3.198-4.346-4.366
		c-1.799-1.167-3.841-2.146-6.126-2.938c-2.284-0.79-4.632-1.563-7.042-2.317c-2.412-0.754-4.76-1.599-7.045-2.533
		c-2.284-0.934-4.326-2.129-6.125-3.584c-1.8-1.456-3.248-3.27-4.346-5.444c-1.098-2.173-1.646-4.896-1.646-8.166
		c0-2.551,0.485-5.012,1.457-7.384s2.393-4.464,4.264-6.279s4.183-3.27,6.937-4.366c2.752-1.096,5.891-1.644,9.418-1.644
		c3.957,0,7.51,0.629,10.659,1.886c3.147,1.258,6.017,3.18,8.604,5.767L678.846,54.693z"/>
</g>
<polygon fill="white" points="60.206,106.047 87.8,106.047 87.8,99.373 67.778,99.373 67.778,59.331 60.206,59.331 "/>
</svg>
